{
  "accessors": [
    {
      "bufferView": 2,
      "componentType": 5126,
      "count": 1322,
      "max": [
        103.78439331054688,
        53.14772033691406,
        82.86715698242188
      ],
      "min": [
        -103.78439331054688,
        -40.898529052734375,
        -9.000000318337698e-06
      ],
      "type": "VEC3"
    },
    {
      "bufferView": 2,
      "byteOffset": 15864,
      "componentType": 5126,
      "count": 1322,
      "max": [
        1.0,
        1.0,
        0.9992086887359619
      ],
      "min": [
        -1.0,
        -1.0,
        -1.0
      ],
      "type": "VEC3"
    },
    {
      "bufferView": 3,
      "componentType": 5126,
      "count": 1322,
      "max": [
        1.0,
        0.9990285038948059,
        1.0,
        1.0
      ],
      "min": [
        -1.0,
        -1.0,
        -0.9989451169967651,
        -1.0
      ],
      "type": "VEC4"
    },
    {
      "bufferView": 1,
      "componentType": 5126,
      "count": 1322,
      "max": [
        1.9931440353393555,
        0.9985160231590271
      ],
      "min": [
        0.005954999942332506,
        0.002982999896630645
      ],
      "type": "VEC2"
    },
    {
      "bufferView": 0,
      "componentType": 5125,
      "count": 5628,
      "type": "SCALAR"
    }
  ],
  "asset": {
    "extras": {
      "author": "L_Krajewski (https://sketchfab.com/L_Krajewski)",
      "license": "CC-BY-4.0 (http://creativecommons.org/licenses/by/4.0/)",
      "source": "https://sketchfab.com/3d-models/dream-on-low-poly-sofa-cbc08e24225845b4addefb13c23085ed",
      "title": "Dream On low poly sofa"
    },
    "generator": "Sketchfab-12.66.0",
    "version": "2.0"
  },
  "bufferViews": [
    {
      "buffer": 0,
      "byteLength": 22512,
      "name": "floatBufferViews",
      "target": 34963
    },
    {
      "buffer": 0,
      "byteLength": 10576,
      "byteOffset": 22512,
      "byteStride": 8,
      "name": "floatBufferViews",
      "target": 34962
    },
    {
      "buffer": 0,
      "byteLength": 31728,
      "byteOffset": 33088,
      "byteStride": 12,
      "name": "floatBufferViews",
      "target": 34962
    },
    {
      "buffer": 0,
      "byteLength": 21152,
      "byteOffset": 64816,
      "byteStride": 16,
      "name": "floatBufferViews",
      "target": 34962
    }
  ],
  "buffers": [
    {
      "byteLength": 85968,
      "uri": "scene.bin"
    }
  ],
  "images": [
    {
      "uri": "textures/DreamOn_sofa_baseColor.png"
    },
    {
      "uri": "textures/DreamOn_sofa_metallicRoughness.png"
    },
    {
      "uri": "textures/DreamOn_sofa_normal.png"
    }
  ],
  "materials": [
    {
      "doubleSided": true,
      "name": "DreamOn_sofa",
      "normalTexture": {
        "index": 2
      },
      "occlusionTexture": {
        "index": 1
      },
      "pbrMetallicRoughness": {
        "baseColorTexture": {
          "index": 0
        },
        "metallicRoughnessTexture": {
          "index": 1
        }
      }
    }
  ],
  "meshes": [
    {
      "name": "Object_0",
      "primitives": [
        {
          "attributes": {
            "NORMAL": 1,
            "POSITION": 0,
            "TANGENT": 2,
            "TEXCOORD_0": 3
          },
          "indices": 4,
          "material": 0,
          "mode": 4
        }
      ]
    }
  ],
  "nodes": [
    {
      "children": [
        1
      ],
      "matrix": [
        2.220446049250313e-16,
        -3.828568672208042e-16,
        1.0,
        0.0,
        1.0,
        1.6081226229577296e-16,
        -2.2204460492503128e-16,
        0.0,
        -1.6081226229577292e-16,
        1.0,
        3.828568672208042e-16,
        0.0,
        -6.124750137329102,
        1.3599338431898814e-15,
        -6.124597549438477,
        1.0
      ],
      "name": "Sketchfab_model"
    },
    {
      "children": [
        2
      ],
      "name": "7d11c764e11c49d7a1f740b5201c0e7d.obj.cleaner.gles"
    },
    {
      "mesh": 0,
      "name": "Object_2"
    }
  ],
  "samplers": [
    {
      "magFilter": 9729,
      "minFilter": 9987,
      "wrapS": 10497,
      "wrapT": 10497
    }
  ],
  "scene": 0,
  "scenes": [
    {
      "name": "Sketchfab_Scene",
      "nodes": [
        0
      ]
    }
  ],
  "textures": [
    {
      "sampler": 0,
      "source": 0
    },
    {
      "sampler": 0,
      "source": 1
    },
    {
      "sampler": 0,
      "source": 2
    }
  ]
}
